<svg xmlns="http://www.w3.org/2000/svg" xmlns:xlink="http://www.w3.org/1999/xlink" width="1889" zoomAndPan="magnify" viewBox="0 0 1417.5 1417.500002" height="1889" preserveAspectRatio="xMidYMid meet" version="1.0"><defs><clipPath id="16375becf6"><path d="M 0 0 L 1417 0 L 1417 1417 L 0 1417 Z M 0 0 " clip-rule="nonzero"/></clipPath></defs><g clip-path="url(#16375becf6)"><path fill="#ffffff" d="M 0 0 L 1417.5 0 L 1417.5 1425 L 0 1425 Z M 0 0 " fill-opacity="1" fill-rule="nonzero"/><path fill="#ffffff" d="M 0 0 L 1417.5 0 L 1417.5 1417.5 L 0 1417.5 Z M 0 0 " fill-opacity="1" fill-rule="nonzero"/><path fill="#3c425a" d="M 0 0 L 1417.5 0 L 1417.5 1417.5 L 0 1417.5 Z M 0 0 " fill-opacity="1" fill-rule="nonzero"/></g><path fill="#7fb196" d="M 183.777344 800.746094 C 183.183594 800.746094 182.589844 800.71875 181.996094 800.660156 C 181.40625 800.601562 180.816406 800.515625 180.234375 800.398438 C 179.648438 800.28125 179.074219 800.136719 178.503906 799.964844 C 177.933594 799.792969 177.375 799.589844 176.824219 799.363281 C 176.273438 799.136719 175.738281 798.882812 175.210938 798.601562 C 174.6875 798.320312 174.179688 798.015625 173.683594 797.683594 C 173.1875 797.351562 172.710938 797 172.25 796.621094 C 171.789062 796.242188 171.351562 795.84375 170.929688 795.421875 C 170.507812 795 170.109375 794.5625 169.730469 794.101562 C 169.355469 793.640625 169 793.164062 168.667969 792.667969 C 168.339844 792.171875 168.035156 791.664062 167.753906 791.136719 C 167.472656 790.613281 167.21875 790.074219 166.992188 789.523438 C 166.761719 788.976562 166.5625 788.414062 166.390625 787.84375 C 166.214844 787.277344 166.074219 786.699219 165.957031 786.113281 C 165.839844 785.53125 165.753906 784.941406 165.695312 784.351562 C 165.636719 783.757812 165.605469 783.164062 165.605469 782.566406 L 165.605469 498.09375 C 165.609375 497.171875 165.679688 496.253906 165.820312 495.34375 C 165.964844 494.429688 166.171875 493.535156 166.449219 492.652344 C 166.730469 491.773438 167.070312 490.921875 167.480469 490.09375 C 167.886719 489.265625 168.355469 488.472656 168.882812 487.714844 C 169.414062 486.960938 169.996094 486.246094 170.632812 485.578125 C 171.269531 484.910156 171.953125 484.296875 172.683594 483.730469 C 173.414062 483.167969 174.183594 482.664062 174.992188 482.21875 C 175.796875 481.769531 176.632812 481.386719 177.5 481.070312 C 178.367188 480.75 179.25 480.5 180.15625 480.316406 C 181.058594 480.132812 181.972656 480.015625 182.894531 479.972656 C 183.816406 479.925781 184.734375 479.953125 185.652344 480.046875 C 186.570312 480.140625 187.472656 480.304688 188.367188 480.539062 C 189.261719 480.773438 190.128906 481.070312 190.976562 481.4375 C 191.824219 481.800781 192.636719 482.230469 193.421875 482.71875 C 194.203125 483.210938 194.941406 483.757812 195.640625 484.359375 C 196.339844 484.960938 196.988281 485.613281 197.589844 486.3125 L 257.484375 557.289062 L 257.484375 95.964844 C 257.488281 95.011719 257.566406 94.066406 257.71875 93.128906 C 257.875 92.191406 258.097656 91.269531 258.398438 90.363281 C 258.695312 89.460938 259.0625 88.585938 259.496094 87.742188 C 259.929688 86.894531 260.429688 86.089844 260.992188 85.320312 C 261.550781 84.554688 262.171875 83.835938 262.84375 83.164062 C 263.519531 82.492188 264.242188 81.878906 265.011719 81.320312 C 265.78125 80.765625 266.59375 80.269531 267.441406 79.839844 C 268.289062 79.410156 269.164062 79.050781 270.070312 78.757812 C 270.972656 78.464844 271.894531 78.246094 272.835938 78.097656 C 273.773438 77.949219 274.71875 77.878906 275.671875 77.878906 C 276.621094 77.878906 277.566406 77.953125 278.503906 78.101562 C 279.445312 78.253906 280.367188 78.472656 281.269531 78.769531 C 282.175781 79.0625 283.050781 79.425781 283.898438 79.855469 C 284.746094 80.289062 285.554688 80.78125 286.324219 81.339844 C 287.09375 81.898438 287.816406 82.515625 288.488281 83.1875 C 289.160156 83.859375 289.777344 84.578125 290.339844 85.347656 L 390.210938 222.636719 C 390.660156 223.105469 391.085938 223.59375 391.480469 224.105469 C 391.878906 224.613281 392.25 225.144531 392.589844 225.695312 C 392.933594 226.246094 393.242188 226.8125 393.523438 227.398438 C 393.804688 227.980469 394.054688 228.578125 394.269531 229.1875 C 394.488281 229.800781 394.671875 230.417969 394.820312 231.050781 C 394.972656 231.679688 395.089844 232.316406 395.171875 232.957031 C 395.253906 233.601562 395.300781 234.246094 395.316406 234.894531 C 395.328125 235.542969 395.308594 236.1875 395.253906 236.832031 C 395.195312 237.480469 395.105469 238.121094 394.984375 238.753906 C 394.859375 239.390625 394.703125 240.019531 394.511719 240.636719 C 394.320312 241.257812 394.097656 241.863281 393.839844 242.460938 C 393.585938 243.054688 393.296875 243.632812 392.980469 244.199219 C 392.660156 244.761719 392.316406 245.308594 391.9375 245.835938 C 391.5625 246.363281 391.160156 246.871094 390.730469 247.355469 C 390.300781 247.835938 389.84375 248.296875 389.363281 248.734375 C 388.886719 249.167969 388.382812 249.578125 387.863281 249.960938 C 387.339844 250.339844 386.796875 250.695312 386.234375 251.019531 C 385.675781 251.34375 385.097656 251.636719 384.507812 251.898438 C 383.914062 252.160156 383.308594 252.390625 382.695312 252.589844 C 382.078125 252.785156 381.453125 252.949219 380.816406 253.082031 C 380.183594 253.210938 379.542969 253.308594 378.898438 253.371094 C 378.253906 253.433594 377.609375 253.460938 376.960938 253.453125 C 376.3125 253.449219 375.667969 253.40625 375.023438 253.332031 C 374.382812 253.253906 373.746094 253.144531 373.113281 253.003906 C 372.480469 252.859375 371.859375 252.679688 371.246094 252.472656 C 370.636719 252.261719 370.035156 252.019531 369.449219 251.742188 C 368.863281 251.46875 368.292969 251.164062 367.738281 250.828125 C 367.183594 250.492188 366.648438 250.128906 366.132812 249.738281 C 365.621094 249.34375 365.125 248.925781 364.65625 248.480469 C 364.1875 248.035156 363.742188 247.566406 363.320312 247.074219 C 362.898438 246.578125 362.507812 246.066406 362.140625 245.53125 C 361.777344 244.996094 361.441406 244.441406 361.136719 243.871094 L 293.828125 152.101562 L 293.828125 606.882812 C 293.835938 607.8125 293.769531 608.738281 293.632812 609.660156 C 293.5 610.582031 293.292969 611.488281 293.019531 612.378906 C 292.746094 613.265625 292.40625 614.128906 292 614.96875 C 291.589844 615.804688 291.121094 616.609375 290.59375 617.371094 C 290.0625 618.136719 289.476562 618.859375 288.835938 619.535156 C 288.195312 620.210938 287.507812 620.832031 286.769531 621.402344 C 286.03125 621.972656 285.257812 622.480469 284.441406 622.933594 C 283.628906 623.382812 282.785156 623.769531 281.910156 624.089844 C 281.035156 624.410156 280.140625 624.660156 279.230469 624.84375 C 278.316406 625.027344 277.394531 625.140625 276.464844 625.179688 C 275.535156 625.222656 274.605469 625.191406 273.683594 625.089844 C 272.757812 624.988281 271.84375 624.820312 270.945312 624.578125 C 270.046875 624.335938 269.171875 624.027344 268.320312 623.652344 C 267.46875 623.273438 266.648438 622.835938 265.863281 622.335938 C 265.082031 621.832031 264.339844 621.273438 263.640625 620.65625 C 262.941406 620.042969 262.296875 619.375 261.699219 618.660156 L 201.949219 547.832031 L 201.949219 782.566406 C 201.949219 783.164062 201.921875 783.757812 201.863281 784.351562 C 201.804688 784.941406 201.71875 785.53125 201.601562 786.113281 C 201.484375 786.699219 201.339844 787.277344 201.167969 787.84375 C 200.996094 788.414062 200.796875 788.976562 200.566406 789.523438 C 200.339844 790.074219 200.085938 790.613281 199.804688 791.136719 C 199.523438 791.664062 199.21875 792.171875 198.886719 792.667969 C 198.558594 793.164062 198.203125 793.640625 197.824219 794.101562 C 197.449219 794.5625 197.050781 795 196.628906 795.421875 C 196.207031 795.84375 195.765625 796.242188 195.308594 796.621094 C 194.847656 797 194.371094 797.351562 193.875 797.683594 C 193.378906 798.015625 192.871094 798.320312 192.34375 798.601562 C 191.820312 798.882812 191.28125 799.136719 190.734375 799.363281 C 190.183594 799.589844 189.625 799.792969 189.054688 799.964844 C 188.484375 800.136719 187.90625 800.28125 187.324219 800.398438 C 186.738281 800.515625 186.152344 800.601562 185.558594 800.660156 C 184.96875 800.71875 184.375 800.746094 183.777344 800.746094 Z M 183.777344 800.746094 " fill-opacity="1" fill-rule="nonzero"/><path fill="#7fb196" d="M 183.777344 261.324219 C 182.078125 261.335938 180.414062 261.109375 178.78125 260.636719 C 177.148438 260.167969 175.617188 259.476562 174.183594 258.5625 C 173.675781 258.25 173.183594 257.914062 172.710938 257.554688 C 172.234375 257.195312 171.78125 256.8125 171.34375 256.40625 C 170.90625 256 170.492188 255.574219 170.097656 255.128906 C 169.703125 254.679688 169.332031 254.214844 168.984375 253.734375 C 168.632812 253.25 168.3125 252.75 168.011719 252.234375 C 167.710938 251.71875 167.441406 251.191406 167.195312 250.648438 C 166.945312 250.105469 166.726562 249.550781 166.535156 248.988281 C 166.34375 248.421875 166.179688 247.851562 166.046875 247.269531 C 165.910156 246.691406 165.804688 246.105469 165.730469 245.511719 C 165.652344 244.921875 165.605469 244.328125 165.585938 243.734375 C 165.566406 243.136719 165.578125 242.542969 165.621094 241.949219 C 165.660156 241.355469 165.730469 240.761719 165.832031 240.175781 C 165.929688 239.585938 166.058594 239.007812 166.214844 238.429688 C 166.371094 237.855469 166.558594 237.289062 166.769531 236.734375 C 166.984375 236.179688 167.222656 235.632812 167.492188 235.101562 C 167.757812 234.566406 168.050781 234.050781 168.371094 233.546875 L 260.246094 86.363281 C 260.558594 85.859375 260.898438 85.371094 261.261719 84.902344 C 261.625 84.429688 262.007812 83.976562 262.414062 83.542969 C 262.824219 83.109375 263.25 82.699219 263.695312 82.308594 C 264.144531 81.914062 264.609375 81.546875 265.09375 81.199219 C 265.578125 80.855469 266.074219 80.535156 266.589844 80.238281 C 267.105469 79.941406 267.632812 79.667969 268.175781 79.425781 C 268.71875 79.179688 269.269531 78.960938 269.832031 78.769531 C 270.394531 78.582031 270.964844 78.417969 271.546875 78.28125 C 272.125 78.148438 272.707031 78.042969 273.296875 77.964844 C 273.886719 77.886719 274.476562 77.839844 275.074219 77.820312 C 275.667969 77.800781 276.261719 77.808594 276.851562 77.847656 C 277.445312 77.886719 278.035156 77.957031 278.621094 78.054688 C 279.207031 78.148438 279.789062 78.277344 280.363281 78.429688 C 280.9375 78.582031 281.503906 78.765625 282.058594 78.972656 C 282.613281 79.183594 283.160156 79.417969 283.691406 79.683594 C 284.226562 79.945312 284.746094 80.234375 285.25 80.546875 C 285.75 80.867188 286.234375 81.207031 286.703125 81.570312 C 287.167969 81.9375 287.617188 82.324219 288.046875 82.734375 C 288.476562 83.140625 288.886719 83.570312 289.273438 84.019531 C 289.664062 84.46875 290.027344 84.933594 290.371094 85.417969 C 290.714844 85.902344 291.035156 86.402344 291.328125 86.914062 C 291.625 87.429688 291.890625 87.957031 292.136719 88.5 C 292.378906 89.042969 292.59375 89.59375 292.785156 90.15625 C 292.972656 90.71875 293.136719 91.289062 293.269531 91.863281 C 293.40625 92.441406 293.511719 93.027344 293.589844 93.613281 C 293.667969 94.203125 293.714844 94.792969 293.734375 95.386719 C 293.757812 95.980469 293.746094 96.570312 293.710938 97.164062 C 293.671875 97.753906 293.609375 98.34375 293.511719 98.929688 C 293.417969 99.515625 293.296875 100.097656 293.144531 100.671875 C 292.996094 101.242188 292.816406 101.808594 292.613281 102.367188 C 292.40625 102.921875 292.175781 103.46875 291.914062 104 C 291.65625 104.535156 291.375 105.054688 291.066406 105.5625 L 199.1875 252.742188 C 198.367188 254.050781 197.398438 255.234375 196.28125 256.292969 C 195.164062 257.355469 193.929688 258.261719 192.582031 259.011719 C 191.238281 259.761719 189.816406 260.332031 188.328125 260.722656 C 186.835938 261.117188 185.320312 261.316406 183.777344 261.324219 Z M 183.777344 261.324219 " fill-opacity="1" fill-rule="nonzero"/><path fill="#df775c" d="M 1037.5625 1341.769531 C 1036.027344 1341.769531 1034.515625 1341.578125 1033.027344 1341.199219 C 1031.542969 1340.816406 1030.125 1340.257812 1028.777344 1339.519531 C 1027.433594 1338.785156 1026.199219 1337.890625 1025.078125 1336.84375 C 1023.953125 1335.796875 1022.980469 1334.628906 1022.152344 1333.335938 L 922.859375 1177.863281 C 922.527344 1177.359375 922.222656 1176.84375 921.941406 1176.3125 C 921.660156 1175.777344 921.40625 1175.230469 921.175781 1174.671875 C 920.949219 1174.117188 920.75 1173.546875 920.582031 1172.96875 C 920.410156 1172.390625 920.269531 1171.804688 920.15625 1171.214844 C 920.042969 1170.621094 919.960938 1170.027344 919.910156 1169.425781 C 919.855469 1168.824219 919.832031 1168.222656 919.839844 1167.621094 C 919.847656 1167.019531 919.882812 1166.417969 919.949219 1165.816406 C 920.015625 1165.21875 920.113281 1164.625 920.238281 1164.035156 C 920.363281 1163.445312 920.519531 1162.863281 920.703125 1162.289062 C 920.882812 1161.714844 921.097656 1161.152344 921.335938 1160.597656 C 921.574219 1160.046875 921.839844 1159.507812 922.132812 1158.980469 C 922.425781 1158.453125 922.746094 1157.941406 923.089844 1157.449219 C 923.433594 1156.953125 923.800781 1156.476562 924.191406 1156.019531 C 924.582031 1155.558594 924.996094 1155.121094 925.429688 1154.707031 C 925.867188 1154.289062 926.320312 1153.894531 926.792969 1153.519531 C 927.269531 1153.148438 927.761719 1152.800781 928.269531 1152.480469 C 928.777344 1152.15625 929.300781 1151.859375 929.839844 1151.585938 C 930.375 1151.316406 930.925781 1151.074219 931.488281 1150.855469 C 932.050781 1150.640625 932.621094 1150.453125 933.203125 1150.292969 C 933.785156 1150.132812 934.371094 1150.003906 934.964844 1149.902344 C 935.558594 1149.800781 936.15625 1149.730469 936.757812 1149.6875 C 937.359375 1149.648438 937.960938 1149.636719 938.5625 1149.652344 C 939.164062 1149.671875 939.765625 1149.71875 940.363281 1149.796875 C 940.960938 1149.875 941.550781 1149.984375 942.140625 1150.121094 C 942.726562 1150.257812 943.304688 1150.421875 943.875 1150.617188 C 944.445312 1150.8125 945.003906 1151.035156 945.550781 1151.285156 C 946.101562 1151.535156 946.632812 1151.8125 947.15625 1152.113281 C 947.675781 1152.417969 948.179688 1152.746094 948.667969 1153.101562 C 949.15625 1153.453125 949.625 1153.832031 950.074219 1154.230469 C 950.527344 1154.628906 950.957031 1155.050781 951.363281 1155.496094 C 951.773438 1155.9375 952.15625 1156.398438 952.519531 1156.882812 C 952.882812 1157.363281 953.222656 1157.859375 953.535156 1158.375 L 1019.390625 1261.34375 L 1019.390625 849.03125 C 1019.390625 848.109375 1019.460938 847.191406 1019.605469 846.28125 C 1019.746094 845.367188 1019.953125 844.472656 1020.234375 843.589844 C 1020.511719 842.710938 1020.851562 841.859375 1021.261719 841.03125 C 1021.667969 840.203125 1022.136719 839.410156 1022.664062 838.652344 C 1023.195312 837.898438 1023.777344 837.183594 1024.414062 836.515625 C 1025.050781 835.847656 1025.734375 835.234375 1026.464844 834.671875 C 1027.195312 834.105469 1027.964844 833.601562 1028.773438 833.15625 C 1029.578125 832.707031 1030.417969 832.324219 1031.28125 832.007812 C 1032.148438 831.6875 1033.03125 831.4375 1033.9375 831.253906 C 1034.839844 831.070312 1035.753906 830.953125 1036.675781 830.910156 C 1037.597656 830.863281 1038.515625 830.890625 1039.433594 830.984375 C 1040.351562 831.078125 1041.257812 831.242188 1042.148438 831.476562 C 1043.042969 831.710938 1043.910156 832.007812 1044.757812 832.375 C 1045.605469 832.742188 1046.421875 833.167969 1047.203125 833.65625 C 1047.984375 834.148438 1048.722656 834.695312 1049.421875 835.296875 C 1050.121094 835.898438 1050.769531 836.550781 1051.371094 837.253906 L 1111.121094 908.078125 L 1111.121094 618.808594 C 1111.121094 618.210938 1111.148438 617.617188 1111.207031 617.023438 C 1111.265625 616.433594 1111.351562 615.84375 1111.46875 615.261719 C 1111.585938 614.675781 1111.730469 614.097656 1111.902344 613.53125 C 1112.074219 612.960938 1112.273438 612.398438 1112.503906 611.851562 C 1112.730469 611.300781 1112.984375 610.761719 1113.265625 610.238281 C 1113.546875 609.710938 1113.851562 609.203125 1114.183594 608.707031 C 1114.511719 608.210938 1114.867188 607.734375 1115.246094 607.273438 C 1115.621094 606.8125 1116.019531 606.371094 1116.441406 605.953125 C 1116.863281 605.53125 1117.304688 605.132812 1117.761719 604.753906 C 1118.222656 604.375 1118.699219 604.023438 1119.195312 603.691406 C 1119.691406 603.359375 1120.199219 603.054688 1120.726562 602.773438 C 1121.25 602.492188 1121.789062 602.238281 1122.335938 602.011719 C 1122.886719 601.78125 1123.445312 601.582031 1124.015625 601.410156 C 1124.585938 601.238281 1125.164062 601.09375 1125.746094 600.976562 C 1126.328125 600.859375 1126.917969 600.773438 1127.511719 600.714844 C 1128.101562 600.65625 1128.695312 600.628906 1129.292969 600.628906 C 1129.886719 600.628906 1130.480469 600.65625 1131.074219 600.714844 C 1131.664062 600.773438 1132.253906 600.859375 1132.835938 600.976562 C 1133.421875 601.09375 1133.996094 601.238281 1134.566406 601.410156 C 1135.136719 601.582031 1135.695312 601.78125 1136.246094 602.011719 C 1136.796875 602.238281 1137.332031 602.492188 1137.859375 602.773438 C 1138.382812 603.054688 1138.890625 603.359375 1139.386719 603.691406 C 1139.882812 604.023438 1140.359375 604.375 1140.820312 604.753906 C 1141.28125 605.132812 1141.71875 605.53125 1142.140625 605.953125 C 1142.5625 606.371094 1142.960938 606.8125 1143.339844 607.273438 C 1143.714844 607.734375 1144.070312 608.210938 1144.402344 608.707031 C 1144.730469 609.203125 1145.039062 609.710938 1145.316406 610.238281 C 1145.597656 610.761719 1145.851562 611.300781 1146.078125 611.851562 C 1146.308594 612.398438 1146.507812 612.960938 1146.679688 613.53125 C 1146.855469 614.097656 1146.996094 614.675781 1147.113281 615.261719 C 1147.230469 615.84375 1147.316406 616.433594 1147.375 617.023438 C 1147.433594 617.617188 1147.464844 618.210938 1147.464844 618.808594 L 1147.464844 957.820312 C 1147.453125 958.738281 1147.375 959.652344 1147.226562 960.5625 C 1147.082031 961.46875 1146.863281 962.359375 1146.582031 963.234375 C 1146.296875 964.109375 1145.953125 964.960938 1145.539062 965.78125 C 1145.128906 966.605469 1144.65625 967.390625 1144.125 968.140625 C 1143.59375 968.894531 1143.007812 969.601562 1142.371094 970.261719 C 1141.730469 970.925781 1141.046875 971.535156 1140.316406 972.089844 C 1139.585938 972.648438 1138.816406 973.148438 1138.007812 973.589844 C 1137.203125 974.03125 1136.367188 974.410156 1135.503906 974.722656 C 1134.636719 975.039062 1133.753906 975.285156 1132.855469 975.464844 C 1131.953125 975.648438 1131.042969 975.757812 1130.125 975.800781 C 1129.203125 975.84375 1128.289062 975.816406 1127.375 975.71875 C 1126.460938 975.621094 1125.558594 975.453125 1124.667969 975.21875 C 1123.777344 974.988281 1122.914062 974.6875 1122.070312 974.320312 C 1121.226562 973.953125 1120.414062 973.527344 1119.632812 973.039062 C 1118.855469 972.550781 1118.117188 972.003906 1117.421875 971.402344 C 1116.726562 970.804688 1116.078125 970.152344 1115.480469 969.453125 L 1055.730469 898.625 L 1055.730469 1323.589844 C 1055.726562 1324.566406 1055.644531 1325.535156 1055.484375 1326.496094 C 1055.324219 1327.460938 1055.085938 1328.402344 1054.773438 1329.328125 C 1054.464844 1330.253906 1054.082031 1331.148438 1053.628906 1332.011719 C 1053.175781 1332.875 1052.65625 1333.695312 1052.070312 1334.476562 C 1051.484375 1335.257812 1050.839844 1335.988281 1050.140625 1336.664062 C 1049.4375 1337.34375 1048.6875 1337.960938 1047.886719 1338.515625 C 1047.085938 1339.074219 1046.246094 1339.566406 1045.367188 1339.988281 C 1044.488281 1340.414062 1043.582031 1340.765625 1042.648438 1341.042969 C 1040.980469 1341.488281 1039.285156 1341.730469 1037.5625 1341.769531 Z M 1037.5625 1341.769531 " fill-opacity="1" fill-rule="nonzero"/><path fill="#df775c" d="M 1037.414062 1341.769531 C 1033.953125 1341.761719 1030.753906 1340.84375 1027.820312 1339.007812 C 1027.320312 1338.6875 1026.832031 1338.339844 1026.363281 1337.972656 C 1025.894531 1337.605469 1025.445312 1337.214844 1025.015625 1336.800781 C 1024.585938 1336.390625 1024.175781 1335.957031 1023.785156 1335.503906 C 1023.398438 1335.054688 1023.03125 1334.585938 1022.6875 1334.097656 C 1022.34375 1333.609375 1022.023438 1333.105469 1021.730469 1332.589844 C 1021.433594 1332.070312 1021.167969 1331.539062 1020.921875 1330.996094 C 1020.679688 1330.453125 1020.460938 1329.898438 1020.273438 1329.332031 C 1020.082031 1328.765625 1019.921875 1328.195312 1019.789062 1327.613281 C 1019.652344 1327.03125 1019.546875 1326.445312 1019.46875 1325.855469 C 1019.390625 1325.261719 1019.34375 1324.667969 1019.324219 1324.074219 C 1019.304688 1323.476562 1019.3125 1322.882812 1019.347656 1322.289062 C 1019.386719 1321.691406 1019.453125 1321.101562 1019.546875 1320.511719 C 1019.644531 1319.921875 1019.765625 1319.339844 1019.917969 1318.765625 C 1020.066406 1318.1875 1020.246094 1317.621094 1020.453125 1317.058594 C 1020.660156 1316.5 1020.890625 1315.953125 1021.152344 1315.414062 C 1021.410156 1314.878906 1021.695312 1314.355469 1022.003906 1313.847656 L 1113.882812 1166.230469 C 1114.199219 1165.722656 1114.539062 1165.234375 1114.902344 1164.765625 C 1115.269531 1164.292969 1115.65625 1163.839844 1116.0625 1163.40625 C 1116.472656 1162.972656 1116.902344 1162.5625 1117.351562 1162.171875 C 1117.800781 1161.777344 1118.269531 1161.410156 1118.753906 1161.066406 C 1119.242188 1160.71875 1119.742188 1160.398438 1120.257812 1160.105469 C 1120.777344 1159.808594 1121.304688 1159.539062 1121.851562 1159.292969 C 1122.394531 1159.050781 1122.949219 1158.832031 1123.511719 1158.644531 C 1124.078125 1158.457031 1124.652344 1158.292969 1125.230469 1158.160156 C 1125.8125 1158.027344 1126.398438 1157.921875 1126.988281 1157.847656 C 1127.578125 1157.773438 1128.171875 1157.726562 1128.769531 1157.710938 C 1129.363281 1157.691406 1129.960938 1157.703125 1130.554688 1157.746094 C 1131.148438 1157.785156 1131.738281 1157.855469 1132.324219 1157.957031 C 1132.914062 1158.054688 1133.496094 1158.183594 1134.070312 1158.339844 C 1134.644531 1158.496094 1135.210938 1158.679688 1135.765625 1158.894531 C 1136.324219 1159.105469 1136.867188 1159.34375 1137.402344 1159.609375 C 1137.933594 1159.875 1138.453125 1160.167969 1138.957031 1160.484375 C 1139.464844 1160.800781 1139.953125 1161.140625 1140.421875 1161.507812 C 1140.894531 1161.871094 1141.347656 1162.257812 1141.78125 1162.667969 C 1142.210938 1163.078125 1142.625 1163.507812 1143.015625 1163.957031 C 1143.40625 1164.40625 1143.773438 1164.875 1144.121094 1165.359375 C 1144.464844 1165.84375 1144.785156 1166.347656 1145.082031 1166.863281 C 1145.378906 1167.382812 1145.648438 1167.910156 1145.890625 1168.457031 C 1146.132812 1169 1146.351562 1169.554688 1146.539062 1170.121094 C 1146.730469 1170.683594 1146.890625 1171.257812 1147.023438 1171.839844 C 1147.15625 1172.417969 1147.261719 1173.003906 1147.335938 1173.597656 C 1147.410156 1174.1875 1147.457031 1174.78125 1147.476562 1175.378906 C 1147.492188 1175.972656 1147.480469 1176.570312 1147.4375 1177.164062 C 1147.398438 1177.757812 1147.328125 1178.347656 1147.226562 1178.9375 C 1147.128906 1179.523438 1147 1180.105469 1146.84375 1180.679688 C 1146.6875 1181.253906 1146.503906 1181.820312 1146.292969 1182.378906 C 1146.078125 1182.933594 1145.839844 1183.480469 1145.574219 1184.015625 C 1145.308594 1184.546875 1145.019531 1185.066406 1144.703125 1185.570312 L 1052.824219 1333.191406 C 1052.015625 1334.503906 1051.054688 1335.695312 1049.9375 1336.765625 C 1048.820312 1337.832031 1047.589844 1338.742188 1046.242188 1339.496094 C 1044.890625 1340.246094 1043.46875 1340.8125 1041.972656 1341.199219 C 1040.480469 1341.585938 1038.960938 1341.777344 1037.414062 1341.769531 Z M 1037.414062 1341.769531 " fill-opacity="1" fill-rule="nonzero"/><path fill="#f2c98c" d="M 1090.039062 574.59375 C 1089.121094 574.554688 1088.207031 574.445312 1087.304688 574.265625 C 1086.398438 574.089844 1085.515625 573.84375 1084.648438 573.53125 C 1083.78125 573.21875 1082.941406 572.84375 1082.132812 572.40625 C 1081.320312 571.96875 1080.546875 571.472656 1079.8125 570.914062 C 1079.078125 570.359375 1078.386719 569.753906 1077.742188 569.09375 C 1077.097656 568.433594 1076.507812 567.730469 1075.96875 566.984375 C 1075.433594 566.234375 1074.953125 565.449219 1074.535156 564.628906 C 1074.113281 563.808594 1073.757812 562.960938 1073.46875 562.085938 C 1071.078125 554.8125 1068.484375 547.613281 1065.683594 540.488281 C 1062.886719 533.363281 1059.890625 526.320312 1056.695312 519.363281 C 1053.5 512.40625 1050.109375 505.546875 1046.527344 498.78125 C 1042.945312 492.015625 1039.171875 485.355469 1035.210938 478.804688 C 1031.253906 472.253906 1027.109375 465.820312 1022.789062 459.5 C 1018.464844 453.183594 1013.964844 446.996094 1009.292969 440.929688 C 1004.621094 434.867188 999.777344 428.941406 994.769531 423.152344 C 989.761719 417.363281 984.59375 411.722656 979.265625 406.226562 C 973.941406 400.726562 968.460938 395.386719 962.832031 390.199219 C 957.203125 385.011719 951.433594 379.988281 945.519531 375.128906 C 939.605469 370.269531 933.5625 365.578125 927.382812 361.058594 C 921.203125 356.542969 914.902344 352.203125 908.480469 348.039062 C 902.058594 343.878906 895.523438 339.902344 888.875 336.109375 C 882.226562 332.316406 875.476562 328.714844 868.625 325.304688 C 861.773438 321.894531 854.828125 318.679688 847.796875 315.664062 C 840.761719 312.644531 833.648438 309.828125 826.457031 307.210938 C 819.265625 304.597656 812.003906 302.1875 804.675781 299.984375 C 797.347656 297.777344 789.960938 295.78125 782.519531 293.996094 C 775.078125 292.207031 767.59375 290.632812 760.0625 289.269531 C 752.53125 287.90625 744.96875 286.757812 737.371094 285.820312 C 729.777344 284.886719 722.160156 284.167969 714.523438 283.660156 C 706.886719 283.15625 699.242188 282.867188 691.589844 282.796875 C 683.9375 282.722656 676.289062 282.867188 668.644531 283.226562 C 661 283.589844 653.375 284.164062 645.761719 284.957031 C 638.148438 285.75 630.566406 286.753906 623.011719 287.976562 C 615.457031 289.195312 607.941406 290.628906 600.46875 292.277344 C 592.992188 293.921875 585.574219 295.777344 578.203125 297.84375 C 570.835938 299.910156 563.527344 302.183594 556.289062 304.660156 C 549.046875 307.140625 541.882812 309.820312 534.792969 312.707031 C 527.703125 315.589844 520.703125 318.671875 513.789062 321.953125 C 506.875 325.234375 500.058594 328.707031 493.339844 332.375 C 486.621094 336.039062 480.011719 339.890625 473.507812 343.933594 C 473.003906 344.28125 472.484375 344.601562 471.945312 344.894531 C 471.410156 345.191406 470.859375 345.457031 470.296875 345.695312 C 469.730469 345.9375 469.15625 346.144531 468.570312 346.328125 C 467.984375 346.507812 467.394531 346.660156 466.792969 346.78125 C 466.191406 346.902344 465.585938 346.992188 464.976562 347.050781 C 464.367188 347.109375 463.757812 347.140625 463.144531 347.136719 C 462.53125 347.136719 461.921875 347.101562 461.3125 347.039062 C 460.703125 346.972656 460.097656 346.878906 459.496094 346.753906 C 458.898438 346.628906 458.304688 346.472656 457.722656 346.289062 C 457.136719 346.105469 456.566406 345.890625 456.003906 345.648438 C 455.441406 345.40625 454.890625 345.132812 454.355469 344.835938 C 453.820312 344.539062 453.300781 344.210938 452.800781 343.863281 C 452.296875 343.511719 451.816406 343.136719 451.351562 342.734375 C 450.886719 342.335938 450.441406 341.914062 450.019531 341.46875 C 449.601562 341.023438 449.203125 340.558594 448.828125 340.074219 C 448.453125 339.589844 448.101562 339.085938 447.78125 338.566406 C 447.457031 338.046875 447.160156 337.511719 446.890625 336.960938 C 446.621094 336.410156 446.378906 335.847656 446.164062 335.273438 C 445.953125 334.699219 445.769531 334.113281 445.617188 333.519531 C 445.460938 332.929688 445.339844 332.328125 445.246094 331.722656 C 445.152344 331.117188 445.089844 330.507812 445.058594 329.894531 C 445.027344 329.285156 445.027344 328.671875 445.054688 328.058594 C 445.085938 327.449219 445.148438 326.839844 445.238281 326.234375 C 445.332031 325.628906 445.453125 325.027344 445.605469 324.433594 C 445.757812 323.839844 445.941406 323.253906 446.152344 322.679688 C 446.363281 322.105469 446.601562 321.542969 446.871094 320.992188 C 447.140625 320.441406 447.433594 319.90625 447.757812 319.382812 C 448.082031 318.863281 448.429688 318.359375 448.800781 317.875 C 449.175781 317.386719 449.574219 316.921875 449.992188 316.476562 C 450.414062 316.03125 450.855469 315.609375 451.320312 315.207031 C 451.78125 314.804688 452.265625 314.429688 452.765625 314.078125 C 453.269531 313.726562 453.785156 313.398438 454.320312 313.101562 C 461.40625 308.6875 468.613281 304.476562 475.9375 300.472656 C 483.261719 296.464844 490.695312 292.671875 498.234375 289.085938 C 505.773438 285.5 513.410156 282.132812 521.136719 278.980469 C 528.867188 275.828125 536.683594 272.898438 544.578125 270.1875 C 552.472656 267.476562 560.441406 264.996094 568.476562 262.734375 C 576.511719 260.476562 584.605469 258.449219 592.757812 256.648438 C 600.910156 254.847656 609.105469 253.28125 617.347656 251.945312 C 625.585938 250.609375 633.859375 249.507812 642.160156 248.640625 C 650.460938 247.769531 658.78125 247.140625 667.121094 246.742188 C 675.460938 246.347656 683.800781 246.1875 692.148438 246.261719 C 700.496094 246.339844 708.835938 246.652344 717.164062 247.199219 C 725.496094 247.75 733.800781 248.53125 742.085938 249.550781 C 750.371094 250.570312 758.621094 251.824219 766.835938 253.308594 C 775.050781 254.796875 783.21875 256.511719 791.335938 258.460938 C 799.453125 260.410156 807.507812 262.585938 815.5 264.992188 C 823.496094 267.394531 831.414062 270.027344 839.261719 272.878906 C 847.105469 275.730469 854.863281 278.804688 862.535156 282.097656 C 870.207031 285.390625 877.777344 288.898438 885.25 292.621094 C 892.726562 296.339844 900.085938 300.273438 907.335938 304.410156 C 914.585938 308.550781 921.714844 312.890625 928.71875 317.429688 C 935.726562 321.972656 942.597656 326.710938 949.332031 331.640625 C 956.070312 336.574219 962.660156 341.691406 969.109375 346.996094 C 975.554688 352.300781 981.847656 357.785156 987.984375 363.445312 C 994.121094 369.105469 1000.09375 374.9375 1005.902344 380.9375 C 1011.707031 386.933594 1017.339844 393.09375 1022.800781 399.410156 C 1028.257812 405.730469 1033.535156 412.199219 1038.628906 418.816406 C 1043.71875 425.433594 1048.621094 432.1875 1053.332031 439.082031 C 1058.042969 445.976562 1062.554688 453 1066.867188 460.148438 C 1071.179688 467.300781 1075.285156 474.566406 1079.1875 481.949219 C 1083.089844 489.332031 1086.78125 496.820312 1090.257812 504.410156 C 1093.738281 512.003906 1096.996094 519.6875 1100.039062 527.464844 C 1103.082031 535.242188 1105.90625 543.097656 1108.503906 551.035156 C 1108.695312 551.601562 1108.859375 552.175781 1108.992188 552.757812 C 1109.128906 553.339844 1109.234375 553.929688 1109.308594 554.519531 C 1109.386719 555.113281 1109.433594 555.710938 1109.449219 556.308594 C 1109.464844 556.90625 1109.453125 557.503906 1109.410156 558.101562 C 1109.367188 558.695312 1109.296875 559.289062 1109.195312 559.878906 C 1109.09375 560.46875 1108.964844 561.050781 1108.804688 561.628906 C 1108.644531 562.203125 1108.457031 562.773438 1108.242188 563.328125 C 1108.023438 563.886719 1107.78125 564.433594 1107.511719 564.964844 C 1107.242188 565.5 1106.945312 566.019531 1106.625 566.523438 C 1106.304688 567.027344 1105.957031 567.515625 1105.585938 567.984375 C 1105.21875 568.453125 1104.824219 568.902344 1104.410156 569.335938 C 1103.996094 569.765625 1103.558594 570.175781 1103.105469 570.5625 C 1102.648438 570.949219 1102.175781 571.3125 1101.683594 571.652344 C 1101.191406 571.992188 1100.683594 572.308594 1100.160156 572.597656 C 1099.636719 572.886719 1099.101562 573.152344 1098.550781 573.386719 C 1098.003906 573.625 1097.441406 573.832031 1096.875 574.011719 C 1094.632812 574.621094 1092.351562 574.8125 1090.039062 574.59375 Z M 1090.039062 574.59375 " fill-opacity="1" fill-rule="nonzero"/><path fill="#f2c98c" d="M 686.917969 1131.179688 C 681.664062 1131.167969 676.414062 1131.066406 671.164062 1130.871094 C 665.917969 1130.675781 660.671875 1130.386719 655.433594 1130.003906 C 650.195312 1129.621094 644.964844 1129.144531 639.742188 1128.578125 C 634.519531 1128.007812 629.308594 1127.347656 624.113281 1126.59375 C 618.914062 1125.839844 613.730469 1124.996094 608.5625 1124.058594 C 603.390625 1123.121094 598.242188 1122.089844 593.109375 1120.96875 C 587.980469 1119.847656 582.867188 1118.636719 577.777344 1117.335938 C 572.691406 1116.03125 567.625 1114.640625 562.585938 1113.15625 C 557.546875 1111.675781 552.535156 1110.101562 547.550781 1108.441406 C 542.570312 1106.78125 537.617188 1105.035156 532.695312 1103.195312 C 527.773438 1101.359375 522.886719 1099.4375 518.03125 1097.425781 C 513.179688 1095.417969 508.363281 1093.320312 503.585938 1091.140625 C 498.804688 1088.957031 494.066406 1086.691406 489.367188 1084.339844 C 484.671875 1081.992188 480.015625 1079.558594 475.402344 1077.042969 C 470.792969 1074.527344 466.226562 1071.929688 461.707031 1069.253906 C 457.1875 1066.574219 452.714844 1063.820312 448.292969 1060.980469 C 443.871094 1058.144531 439.5 1055.230469 435.183594 1052.238281 C 430.863281 1049.246094 426.601562 1046.179688 422.390625 1043.035156 C 418.183594 1039.894531 414.03125 1036.675781 409.933594 1033.382812 C 405.839844 1030.09375 401.804688 1026.730469 397.828125 1023.296875 C 393.851562 1019.863281 389.941406 1016.359375 386.089844 1012.785156 C 382.238281 1009.210938 378.449219 1005.570312 374.730469 1001.863281 C 371.007812 998.152344 367.351562 994.378906 363.765625 990.542969 C 360.175781 986.703125 356.65625 982.804688 353.207031 978.839844 C 349.757812 974.875 346.378906 970.855469 343.074219 966.769531 C 339.769531 962.6875 336.535156 958.546875 333.375 954.347656 C 330.214844 950.148438 327.132812 945.898438 324.125 941.589844 C 321.113281 937.28125 318.183594 932.921875 315.332031 928.511719 C 312.476562 924.097656 309.703125 919.636719 307.007812 915.125 C 304.3125 910.617188 301.699219 906.058594 299.164062 901.453125 C 296.632812 896.851562 294.179688 892.203125 291.8125 887.515625 C 289.445312 882.824219 287.160156 878.09375 284.960938 873.320312 C 278.316406 858.898438 272.480469 844.15625 267.441406 829.097656 C 262.40625 814.039062 258.199219 798.75 254.828125 783.230469 C 251.453125 767.714844 248.929688 752.0625 247.261719 736.269531 C 245.589844 720.476562 244.78125 704.640625 244.835938 688.761719 C 244.835938 688.167969 244.863281 687.570312 244.921875 686.980469 C 244.980469 686.386719 245.070312 685.800781 245.183594 685.214844 C 245.300781 684.632812 245.445312 684.054688 245.617188 683.484375 C 245.792969 682.914062 245.992188 682.355469 246.21875 681.804688 C 246.445312 681.253906 246.699219 680.71875 246.980469 680.191406 C 247.261719 679.667969 247.566406 679.15625 247.898438 678.660156 C 248.230469 678.167969 248.582031 677.6875 248.960938 677.230469 C 249.339844 676.769531 249.738281 676.328125 250.160156 675.90625 C 250.578125 675.484375 251.019531 675.085938 251.480469 674.707031 C 251.941406 674.332031 252.417969 673.976562 252.910156 673.644531 C 253.40625 673.316406 253.917969 673.007812 254.441406 672.730469 C 254.964844 672.449219 255.503906 672.195312 256.054688 671.964844 C 256.601562 671.738281 257.164062 671.539062 257.734375 671.363281 C 258.300781 671.191406 258.878906 671.046875 259.460938 670.929688 C 260.046875 670.816406 260.632812 670.726562 261.226562 670.667969 C 261.820312 670.609375 262.414062 670.582031 263.007812 670.582031 C 263.601562 670.582031 264.195312 670.609375 264.789062 670.667969 C 265.382812 670.726562 265.96875 670.816406 266.554688 670.929688 C 267.136719 671.046875 267.714844 671.191406 268.28125 671.363281 C 268.851562 671.539062 269.410156 671.738281 269.960938 671.964844 C 270.511719 672.195312 271.050781 672.449219 271.574219 672.730469 C 272.097656 673.007812 272.609375 673.316406 273.101562 673.644531 C 273.597656 673.976562 274.074219 674.332031 274.535156 674.707031 C 274.996094 675.085938 275.4375 675.484375 275.855469 675.90625 C 276.277344 676.328125 276.675781 676.769531 277.054688 677.230469 C 277.433594 677.6875 277.785156 678.167969 278.117188 678.660156 C 278.449219 679.15625 278.753906 679.667969 279.035156 680.191406 C 279.3125 680.71875 279.570312 681.253906 279.796875 681.804688 C 280.023438 682.355469 280.222656 682.914062 280.398438 683.484375 C 280.570312 684.054688 280.714844 684.632812 280.832031 685.214844 C 280.945312 685.800781 281.035156 686.386719 281.09375 686.980469 C 281.148438 687.570312 281.179688 688.167969 281.179688 688.761719 C 281.085938 703.332031 281.785156 717.863281 283.277344 732.355469 C 284.765625 746.851562 287.039062 761.21875 290.097656 775.464844 C 293.152344 789.710938 296.972656 803.75 301.554688 817.578125 C 306.140625 831.40625 311.464844 844.945312 317.523438 858.195312 C 320.414062 864.460938 323.460938 870.648438 326.664062 876.757812 C 329.871094 882.867188 333.226562 888.894531 336.738281 894.832031 C 340.25 900.773438 343.90625 906.621094 347.714844 912.375 C 351.523438 918.128906 355.476562 923.78125 359.570312 929.332031 C 363.664062 934.886719 367.898438 940.332031 372.269531 945.667969 C 376.640625 951.003906 381.144531 956.226562 385.785156 961.335938 C 390.421875 966.445312 395.183594 971.429688 400.074219 976.296875 C 404.964844 981.164062 409.976562 985.902344 415.109375 990.511719 C 420.238281 995.125 425.484375 999.601562 430.84375 1003.945312 C 436.203125 1008.289062 441.667969 1012.496094 447.238281 1016.5625 C 452.8125 1020.628906 458.484375 1024.550781 464.257812 1028.328125 C 470.027344 1032.105469 475.890625 1035.734375 481.847656 1039.214844 C 487.804688 1042.695312 493.84375 1046.019531 499.972656 1049.195312 C 506.097656 1052.367188 512.296875 1055.382812 518.578125 1058.238281 C 524.855469 1061.09375 531.203125 1063.792969 537.617188 1066.324219 C 544.03125 1068.859375 550.507812 1071.230469 557.042969 1073.433594 C 563.578125 1075.640625 570.167969 1077.675781 576.804688 1079.546875 C 583.445312 1081.417969 590.128906 1083.117188 596.855469 1084.648438 C 603.578125 1086.175781 610.339844 1087.535156 617.136719 1088.722656 C 623.929688 1089.90625 630.75 1090.921875 637.597656 1091.761719 C 644.441406 1092.597656 651.304688 1093.265625 658.1875 1093.753906 C 665.066406 1094.246094 671.953125 1094.558594 678.851562 1094.699219 C 685.746094 1094.839844 692.640625 1094.804688 699.535156 1094.59375 C 706.429688 1094.382812 713.3125 1094 720.1875 1093.4375 C 727.0625 1092.878906 733.917969 1092.140625 740.757812 1091.234375 C 747.59375 1090.324219 754.402344 1089.242188 761.1875 1087.984375 C 767.96875 1086.730469 774.714844 1085.300781 781.421875 1083.703125 C 788.132812 1082.105469 794.796875 1080.335938 801.417969 1078.398438 C 808.039062 1076.460938 814.605469 1074.355469 821.117188 1072.085938 C 827.628906 1069.8125 834.082031 1067.378906 840.46875 1064.777344 C 846.859375 1062.175781 853.179688 1059.417969 859.425781 1056.496094 C 865.675781 1053.574219 871.847656 1050.496094 877.941406 1047.261719 C 878.460938 1046.90625 879 1046.578125 879.554688 1046.277344 C 880.113281 1045.976562 880.679688 1045.707031 881.265625 1045.464844 C 881.847656 1045.222656 882.445312 1045.015625 883.050781 1044.835938 C 883.65625 1044.65625 884.269531 1044.511719 884.890625 1044.394531 C 885.511719 1044.28125 886.136719 1044.199219 886.765625 1044.148438 C 887.398438 1044.101562 888.027344 1044.082031 888.660156 1044.101562 C 889.289062 1044.117188 889.917969 1044.164062 890.546875 1044.246094 C 891.171875 1044.328125 891.792969 1044.441406 892.40625 1044.589844 C 893.019531 1044.734375 893.625 1044.914062 894.222656 1045.125 C 894.816406 1045.332031 895.402344 1045.574219 895.972656 1045.84375 C 896.542969 1046.117188 897.097656 1046.414062 897.636719 1046.742188 C 898.175781 1047.070312 898.699219 1047.425781 899.199219 1047.808594 C 899.703125 1048.191406 900.183594 1048.601562 900.644531 1049.035156 C 901.105469 1049.46875 901.539062 1049.921875 901.953125 1050.402344 C 902.363281 1050.878906 902.75 1051.378906 903.113281 1051.898438 C 903.472656 1052.417969 903.804688 1052.953125 904.109375 1053.507812 C 904.414062 1054.058594 904.6875 1054.628906 904.933594 1055.210938 C 905.179688 1055.792969 905.394531 1056.386719 905.578125 1056.992188 C 905.761719 1057.59375 905.914062 1058.207031 906.03125 1058.828125 C 906.152344 1059.449219 906.238281 1060.074219 906.292969 1060.703125 C 906.347656 1061.332031 906.371094 1061.964844 906.359375 1062.59375 C 906.347656 1063.226562 906.304688 1063.855469 906.226562 1064.484375 C 906.152344 1065.109375 906.042969 1065.734375 905.898438 1066.347656 C 905.757812 1066.964844 905.585938 1067.570312 905.378906 1068.167969 C 905.175781 1068.765625 904.941406 1069.351562 904.675781 1069.925781 C 904.40625 1070.5 904.113281 1071.054688 903.789062 1071.597656 C 903.464844 1072.140625 903.113281 1072.664062 902.734375 1073.171875 C 902.355469 1073.675781 901.953125 1074.160156 901.523438 1074.625 C 901.09375 1075.089844 900.640625 1075.527344 900.167969 1075.945312 C 899.691406 1076.363281 899.195312 1076.753906 898.679688 1077.117188 C 898.164062 1077.480469 897.632812 1077.820312 897.082031 1078.128906 C 896.53125 1078.4375 895.964844 1078.71875 895.382812 1078.96875 C 879.414062 1087.503906 862.976562 1095.03125 846.078125 1101.550781 C 829.179688 1108.066406 811.949219 1113.527344 794.378906 1117.925781 C 776.808594 1122.328125 759.035156 1125.636719 741.058594 1127.851562 C 723.078125 1130.070312 705.035156 1131.179688 686.917969 1131.179688 Z M 686.917969 1131.179688 " fill-opacity="1" fill-rule="nonzero"/><path fill="#f3efdb" d="M 709.015625 847.433594 L 712.648438 847.433594 C 714.144531 847.429688 715.632812 847.351562 717.121094 847.199219 C 718.605469 847.050781 720.082031 846.824219 721.542969 846.53125 C 723.007812 846.234375 724.457031 845.871094 725.882812 845.433594 C 727.3125 844.996094 728.714844 844.492188 730.09375 843.917969 C 731.472656 843.34375 732.824219 842.703125 734.140625 841.996094 C 735.457031 841.292969 736.734375 840.523438 737.976562 839.691406 C 739.21875 838.859375 740.414062 837.972656 741.570312 837.023438 C 742.722656 836.074219 743.828125 835.070312 744.886719 834.015625 C 745.941406 832.957031 746.941406 831.851562 747.890625 830.699219 C 748.839844 829.542969 749.730469 828.34375 750.558594 827.101562 C 751.390625 825.859375 752.160156 824.582031 752.863281 823.265625 C 753.570312 821.945312 754.210938 820.597656 754.785156 819.21875 C 755.359375 817.839844 755.863281 816.433594 756.300781 815.007812 C 756.734375 813.578125 757.101562 812.128906 757.394531 810.664062 C 757.691406 809.199219 757.914062 807.722656 758.0625 806.238281 C 758.214844 804.75 758.292969 803.261719 758.296875 801.765625 L 758.296875 759.007812 C 758.296875 748.246094 748.410156 735.738281 730.964844 724.394531 L 709.015625 715.375 Z M 709.015625 847.433594 " fill-opacity="1" fill-rule="nonzero"/><path fill="#f3efdb" d="M 615.539062 573.285156 L 615.539062 616.917969 C 615.539062 630.441406 630.078125 642.511719 641.851562 650.511719 L 672.671875 662.4375 L 672.671875 527.617188 L 661.332031 527.617188 C 659.835938 527.617188 658.34375 527.691406 656.851562 527.835938 C 655.363281 527.984375 653.882812 528.203125 652.417969 528.496094 C 650.949219 528.785156 649.5 529.148438 648.066406 529.582031 C 646.632812 530.015625 645.226562 530.519531 643.84375 531.089844 C 642.457031 531.664062 641.105469 532.300781 639.785156 533.007812 C 638.464844 533.710938 637.183594 534.476562 635.9375 535.308594 C 634.691406 536.140625 633.488281 537.027344 632.332031 537.976562 C 631.171875 538.925781 630.0625 539.929688 629.003906 540.984375 C 627.945312 542.042969 626.9375 543.148438 625.984375 544.304688 C 625.035156 545.460938 624.140625 546.660156 623.308594 547.902344 C 622.472656 549.144531 621.703125 550.425781 620.992188 551.746094 C 620.285156 553.066406 619.644531 554.417969 619.066406 555.796875 C 618.492188 557.179688 617.984375 558.585938 617.546875 560.019531 C 617.109375 561.449219 616.742188 562.902344 616.445312 564.367188 C 616.148438 565.835938 615.925781 567.316406 615.773438 568.804688 C 615.621094 570.292969 615.542969 571.789062 615.539062 573.285156 Z M 615.539062 573.285156 " fill-opacity="1" fill-rule="nonzero"/><path fill="#f3efdb" d="M 686.917969 368.800781 C 681.683594 368.800781 676.453125 368.929688 671.226562 369.1875 C 665.996094 369.445312 660.777344 369.828125 655.570312 370.34375 C 650.363281 370.855469 645.167969 371.496094 639.992188 372.265625 C 634.8125 373.035156 629.65625 373.929688 624.523438 374.949219 C 619.390625 375.972656 614.285156 377.117188 609.207031 378.390625 C 604.128906 379.664062 599.085938 381.058594 594.078125 382.578125 C 589.070312 384.097656 584.101562 385.742188 579.171875 387.503906 C 574.246094 389.269531 569.363281 391.152344 564.527344 393.15625 C 559.691406 395.160156 554.90625 397.28125 550.175781 399.519531 C 545.445312 401.761719 540.769531 404.113281 536.15625 406.582031 C 531.539062 409.050781 526.984375 411.632812 522.496094 414.324219 C 518.007812 417.015625 513.585938 419.816406 509.234375 422.726562 C 504.882812 425.632812 500.605469 428.648438 496.398438 431.765625 C 492.195312 434.886719 488.070312 438.109375 484.023438 441.429688 C 479.980469 444.75 476.015625 448.171875 472.136719 451.6875 C 468.261719 455.203125 464.46875 458.8125 460.769531 462.515625 C 457.070312 466.21875 453.460938 470.011719 449.945312 473.890625 C 446.429688 477.769531 443.011719 481.734375 439.691406 485.78125 C 436.371094 489.828125 433.152344 493.957031 430.035156 498.160156 C 426.917969 502.367188 423.902344 506.648438 420.996094 511 C 418.085938 515.355469 415.289062 519.777344 412.597656 524.269531 C 409.90625 528.761719 407.328125 533.316406 404.859375 537.933594 C 402.390625 542.550781 400.039062 547.226562 397.800781 551.960938 C 395.5625 556.695312 393.445312 561.480469 391.441406 566.316406 C 389.4375 571.15625 387.554688 576.039062 385.792969 580.96875 C 384.027344 585.902344 382.386719 590.871094 380.867188 595.882812 C 379.347656 600.894531 377.953125 605.9375 376.679688 611.019531 C 375.410156 616.097656 374.261719 621.203125 373.242188 626.339844 C 372.21875 631.476562 371.324219 636.632812 370.558594 641.8125 C 369.789062 646.992188 369.148438 652.1875 368.636719 657.398438 C 368.121094 662.609375 367.738281 667.832031 367.480469 673.0625 C 367.222656 678.292969 367.09375 683.523438 367.09375 688.761719 C 367.09375 693.996094 367.222656 699.230469 367.480469 704.460938 C 367.738281 709.691406 368.121094 714.910156 368.636719 720.125 C 369.148438 725.335938 369.789062 730.53125 370.558594 735.710938 C 371.324219 740.890625 372.21875 746.046875 373.242188 751.183594 C 374.261719 756.320312 375.410156 761.425781 376.679688 766.503906 C 377.953125 771.585938 379.347656 776.628906 380.867188 781.640625 C 382.386719 786.652344 384.027344 791.621094 385.792969 796.554688 C 387.554688 801.484375 389.4375 806.367188 391.441406 811.203125 C 393.445312 816.042969 395.5625 820.828125 397.800781 825.5625 C 400.039062 830.296875 402.390625 834.972656 404.859375 839.589844 C 407.328125 844.207031 409.90625 848.761719 412.597656 853.253906 C 415.289062 857.746094 418.085938 862.167969 420.996094 866.523438 C 423.902344 870.875 426.917969 875.15625 430.035156 879.359375 C 433.152344 883.566406 436.371094 887.695312 439.691406 891.742188 C 443.011719 895.789062 446.429688 899.753906 449.945312 903.632812 C 453.460938 907.511719 457.070312 911.304688 460.769531 915.007812 C 464.46875 918.710938 468.261719 922.320312 472.136719 925.835938 C 476.015625 929.351562 479.980469 932.773438 484.023438 936.09375 C 488.070312 939.414062 492.195312 942.636719 496.398438 945.753906 C 500.605469 948.875 504.882812 951.890625 509.234375 954.796875 C 513.585938 957.707031 518.007812 960.507812 522.496094 963.199219 C 526.984375 965.890625 531.539062 968.472656 536.15625 970.941406 C 540.769531 973.410156 545.445312 975.761719 550.175781 978 C 554.90625 980.242188 559.691406 982.363281 564.527344 984.367188 C 569.363281 986.371094 574.246094 988.253906 579.171875 990.019531 C 584.101562 991.78125 589.070312 993.425781 594.078125 994.945312 C 599.085938 996.464844 604.128906 997.859375 609.207031 999.132812 C 614.285156 1000.40625 619.390625 1001.550781 624.523438 1002.574219 C 629.65625 1003.59375 634.8125 1004.488281 639.992188 1005.257812 C 645.167969 1006.027344 650.363281 1006.667969 655.570312 1007.179688 C 660.777344 1007.695312 665.996094 1008.078125 671.226562 1008.335938 C 676.453125 1008.59375 681.683594 1008.722656 686.917969 1008.722656 C 692.152344 1008.722656 697.382812 1008.59375 702.613281 1008.335938 C 707.839844 1008.078125 713.058594 1007.695312 718.265625 1007.179688 C 723.476562 1006.667969 728.667969 1006.027344 733.847656 1005.257812 C 739.023438 1004.488281 744.179688 1003.59375 749.3125 1002.574219 C 754.445312 1001.550781 759.550781 1000.40625 764.628906 999.132812 C 769.707031 997.859375 774.75 996.464844 779.757812 994.945312 C 784.765625 993.425781 789.734375 991.78125 794.664062 990.019531 C 799.589844 988.253906 804.472656 986.371094 809.308594 984.367188 C 814.144531 982.363281 818.929688 980.242188 823.660156 978 C 828.390625 975.761719 833.066406 973.410156 837.683594 970.941406 C 842.296875 968.472656 846.851562 965.890625 851.339844 963.199219 C 855.828125 960.507812 860.25 957.707031 864.601562 954.796875 C 868.953125 951.890625 873.234375 948.875 877.4375 945.753906 C 881.640625 942.636719 885.765625 939.414062 889.8125 936.09375 C 893.859375 932.773438 897.820312 929.351562 901.699219 925.835938 C 905.578125 922.320312 909.367188 918.710938 913.066406 915.007812 C 916.769531 911.304688 920.375 907.511719 923.890625 903.632812 C 927.40625 899.753906 930.824219 895.789062 934.144531 891.742188 C 937.464844 887.695312 940.683594 883.566406 943.800781 879.359375 C 946.921875 875.15625 949.933594 870.875 952.839844 866.523438 C 955.75 862.167969 958.546875 857.746094 961.238281 853.253906 C 963.929688 848.761719 966.507812 844.207031 968.976562 839.589844 C 971.445312 834.972656 973.796875 830.296875 976.035156 825.5625 C 978.273438 820.828125 980.394531 816.042969 982.394531 811.203125 C 984.398438 806.367188 986.28125 801.484375 988.046875 796.550781 C 989.808594 791.621094 991.449219 786.652344 992.96875 781.640625 C 994.488281 776.628906 995.882812 771.585938 997.15625 766.503906 C 998.429688 761.425781 999.574219 756.316406 1000.597656 751.183594 C 1001.617188 746.046875 1002.511719 740.890625 1003.28125 735.710938 C 1004.046875 730.53125 1004.6875 725.335938 1005.203125 720.125 C 1005.714844 714.910156 1006.097656 709.691406 1006.355469 704.460938 C 1006.613281 699.230469 1006.742188 693.996094 1006.742188 688.761719 C 1006.742188 683.523438 1006.613281 678.292969 1006.355469 673.0625 C 1006.097656 667.832031 1005.714844 662.609375 1005.203125 657.398438 C 1004.6875 652.1875 1004.046875 646.992188 1003.28125 641.8125 C 1002.511719 636.632812 1001.617188 631.476562 1000.597656 626.339844 C 999.574219 621.203125 998.429688 616.097656 997.15625 611.019531 C 995.886719 605.9375 994.488281 600.894531 992.96875 595.882812 C 991.449219 590.871094 989.808594 585.902344 988.046875 580.96875 C 986.28125 576.039062 984.398438 571.15625 982.394531 566.316406 C 980.394531 561.480469 978.273438 556.695312 976.035156 551.960938 C 973.796875 547.226562 971.445312 542.550781 968.976562 537.933594 C 966.507812 533.316406 963.929688 528.761719 961.238281 524.269531 C 958.546875 519.777344 955.75 515.355469 952.839844 511 C 949.933594 506.648438 946.921875 502.367188 943.800781 498.160156 C 940.683594 493.957031 937.464844 489.828125 934.144531 485.78125 C 930.824219 481.734375 927.40625 477.769531 923.890625 473.890625 C 920.375 470.011719 916.769531 466.21875 913.066406 462.515625 C 909.367188 458.8125 905.578125 455.203125 901.699219 451.6875 C 897.820312 448.171875 893.859375 444.75 889.8125 441.429688 C 885.765625 438.109375 881.640625 434.886719 877.4375 431.765625 C 873.234375 428.648438 868.953125 425.632812 864.601562 422.726562 C 860.25 419.816406 855.828125 417.015625 851.339844 414.324219 C 846.851562 411.632812 842.296875 409.050781 837.683594 406.582031 C 833.066406 404.113281 828.390625 401.761719 823.660156 399.519531 C 818.929688 397.28125 814.144531 395.160156 809.308594 393.15625 C 804.472656 391.152344 799.589844 389.269531 794.664062 387.503906 C 789.734375 385.742188 784.765625 384.097656 779.757812 382.578125 C 774.75 381.058594 769.707031 379.664062 764.628906 378.390625 C 759.550781 377.117188 754.445312 375.972656 749.3125 374.949219 C 744.179688 373.929688 739.023438 373.035156 733.847656 372.265625 C 728.667969 371.496094 723.476562 370.855469 718.265625 370.34375 C 713.058594 369.828125 707.839844 369.445312 702.609375 369.1875 C 697.382812 368.929688 692.152344 368.800781 686.917969 368.800781 Z M 794.640625 593.644531 C 794.640625 594.242188 794.613281 594.835938 794.554688 595.429688 C 794.496094 596.019531 794.40625 596.609375 794.292969 597.191406 C 794.175781 597.777344 794.03125 598.355469 793.859375 598.921875 C 793.683594 599.492188 793.484375 600.054688 793.257812 600.601562 C 793.03125 601.152344 792.777344 601.691406 792.496094 602.214844 C 792.214844 602.742188 791.910156 603.25 791.578125 603.746094 C 791.246094 604.242188 790.894531 604.71875 790.515625 605.179688 C 790.136719 605.640625 789.738281 606.082031 789.316406 606.5 C 788.898438 606.921875 788.457031 607.320312 787.996094 607.699219 C 787.535156 608.078125 787.058594 608.429688 786.566406 608.761719 C 786.070312 609.09375 785.558594 609.398438 785.035156 609.679688 C 784.511719 609.960938 783.972656 610.214844 783.421875 610.441406 C 782.871094 610.667969 782.3125 610.871094 781.742188 611.042969 C 781.175781 611.214844 780.597656 611.359375 780.015625 611.476562 C 779.429688 611.59375 778.84375 611.679688 778.25 611.738281 C 777.65625 611.796875 777.0625 611.824219 776.46875 611.824219 C 775.875 611.824219 775.28125 611.796875 774.6875 611.738281 C 774.09375 611.679688 773.507812 611.59375 772.921875 611.476562 C 772.339844 611.359375 771.761719 611.214844 771.195312 611.042969 C 770.625 610.871094 770.066406 610.667969 769.515625 610.441406 C 768.964844 610.214844 768.425781 609.960938 767.902344 609.679688 C 767.378906 609.398438 766.867188 609.09375 766.371094 608.761719 C 765.878906 608.429688 765.402344 608.078125 764.941406 607.699219 C 764.480469 607.320312 764.039062 606.921875 763.621094 606.5 C 763.199219 606.082031 762.800781 605.640625 762.421875 605.179688 C 762.042969 604.71875 761.691406 604.242188 761.359375 603.746094 C 761.027344 603.25 760.722656 602.742188 760.441406 602.214844 C 760.164062 601.691406 759.90625 601.152344 759.679688 600.601562 C 759.453125 600.054688 759.253906 599.492188 759.078125 598.921875 C 758.90625 598.355469 758.761719 597.777344 758.644531 597.191406 C 758.53125 596.609375 758.441406 596.019531 758.382812 595.429688 C 758.328125 594.835938 758.296875 594.242188 758.296875 593.644531 L 758.296875 573.285156 C 758.292969 571.789062 758.214844 570.300781 758.0625 568.8125 C 757.914062 567.328125 757.691406 565.851562 757.394531 564.386719 C 757.101562 562.921875 756.734375 561.472656 756.300781 560.042969 C 755.863281 558.617188 755.355469 557.210938 754.785156 555.832031 C 754.210938 554.453125 753.570312 553.105469 752.863281 551.785156 C 752.160156 550.46875 751.390625 549.191406 750.558594 547.949219 C 749.730469 546.707031 748.839844 545.507812 747.890625 544.351562 C 746.941406 543.199219 745.941406 542.09375 744.886719 541.035156 C 743.828125 539.980469 742.722656 538.976562 741.570312 538.027344 C 740.414062 537.078125 739.21875 536.191406 737.976562 535.359375 C 736.734375 534.527344 735.457031 533.757812 734.140625 533.054688 C 732.824219 532.347656 731.472656 531.707031 730.09375 531.132812 C 728.714844 530.558594 727.3125 530.054688 725.882812 529.617188 C 724.457031 529.179688 723.007812 528.816406 721.542969 528.519531 C 720.082031 528.226562 718.605469 528 717.121094 527.851562 C 715.632812 527.699219 714.144531 527.621094 712.648438 527.617188 L 709.015625 527.617188 L 709.015625 676.253906 L 745.792969 690.796875 C 746.9375 691.234375 748.003906 691.816406 748.992188 692.542969 C 778.941406 711.449219 794.640625 734.28125 794.640625 758.714844 L 794.640625 802.347656 C 794.636719 803.6875 794.601562 805.03125 794.535156 806.371094 C 794.46875 807.710938 794.367188 809.046875 794.234375 810.382812 C 794.097656 811.71875 793.933594 813.050781 793.734375 814.375 C 793.535156 815.703125 793.304688 817.023438 793.042969 818.339844 C 792.777344 819.65625 792.480469 820.964844 792.15625 822.265625 C 791.828125 823.566406 791.46875 824.859375 791.078125 826.140625 C 790.6875 827.425781 790.265625 828.699219 789.8125 829.960938 C 789.359375 831.226562 788.875 832.476562 788.359375 833.714844 C 787.847656 834.953125 787.300781 836.179688 786.726562 837.390625 C 786.152344 838.605469 785.550781 839.800781 784.917969 840.984375 C 784.285156 842.167969 783.621094 843.335938 782.933594 844.484375 C 782.242188 845.636719 781.523438 846.769531 780.777344 847.882812 C 780.03125 849 779.261719 850.097656 778.460938 851.171875 C 777.660156 852.25 776.835938 853.308594 775.984375 854.34375 C 775.132812 855.382812 774.257812 856.398438 773.355469 857.390625 C 772.457031 858.386719 771.53125 859.355469 770.582031 860.304688 C 769.636719 861.253906 768.664062 862.179688 767.671875 863.082031 C 766.675781 863.980469 765.660156 864.859375 764.625 865.710938 C 763.589844 866.5625 762.53125 867.386719 761.453125 868.1875 C 760.378906 868.984375 759.28125 869.757812 758.167969 870.503906 C 757.050781 871.25 755.917969 871.96875 754.769531 872.660156 C 753.621094 873.351562 752.453125 874.011719 751.269531 874.644531 C 750.089844 875.277344 748.890625 875.882812 747.679688 876.457031 C 746.46875 877.03125 745.242188 877.578125 744.003906 878.089844 C 742.765625 878.605469 741.515625 879.089844 740.253906 879.542969 C 738.988281 879.996094 737.71875 880.417969 736.433594 880.808594 C 735.152344 881.199219 733.859375 881.558594 732.558594 881.886719 C 731.257812 882.214844 729.949219 882.511719 728.636719 882.773438 C 727.320312 883.035156 726 883.269531 724.671875 883.464844 C 723.347656 883.664062 722.015625 883.832031 720.679688 883.964844 C 719.347656 884.097656 718.011719 884.199219 716.671875 884.269531 C 715.332031 884.335938 713.992188 884.371094 712.648438 884.375 L 709.015625 884.375 L 709.015625 925.242188 C 709.015625 925.835938 708.984375 926.429688 708.929688 927.023438 C 708.871094 927.617188 708.78125 928.203125 708.667969 928.789062 C 708.550781 929.371094 708.40625 929.949219 708.234375 930.519531 C 708.058594 931.085938 707.859375 931.648438 707.632812 932.199219 C 707.402344 932.746094 707.148438 933.285156 706.871094 933.8125 C 706.589844 934.335938 706.285156 934.847656 705.953125 935.339844 C 705.621094 935.835938 705.269531 936.3125 704.890625 936.773438 C 704.511719 937.234375 704.113281 937.675781 703.691406 938.097656 C 703.273438 938.515625 702.832031 938.917969 702.371094 939.292969 C 701.910156 939.671875 701.433594 940.027344 700.9375 940.355469 C 700.445312 940.6875 699.933594 940.992188 699.410156 941.273438 C 698.882812 941.554688 698.347656 941.808594 697.796875 942.035156 C 697.246094 942.265625 696.6875 942.464844 696.117188 942.636719 C 695.550781 942.808594 694.972656 942.953125 694.386719 943.070312 C 693.804688 943.1875 693.21875 943.273438 692.625 943.332031 C 692.03125 943.390625 691.4375 943.421875 690.84375 943.421875 C 690.25 943.421875 689.65625 943.390625 689.0625 943.332031 C 688.46875 943.273438 687.882812 943.1875 687.296875 943.070312 C 686.714844 942.953125 686.136719 942.808594 685.570312 942.636719 C 685 942.464844 684.4375 942.265625 683.890625 942.035156 C 683.339844 941.808594 682.800781 941.554688 682.277344 941.273438 C 681.753906 940.992188 681.242188 940.6875 680.746094 940.355469 C 680.253906 940.027344 679.777344 939.671875 679.316406 939.292969 C 678.855469 938.917969 678.414062 938.515625 677.992188 938.097656 C 677.574219 937.675781 677.175781 937.234375 676.796875 936.773438 C 676.417969 936.3125 676.066406 935.835938 675.734375 935.339844 C 675.402344 934.847656 675.097656 934.335938 674.816406 933.8125 C 674.535156 933.285156 674.28125 932.746094 674.054688 932.199219 C 673.828125 931.648438 673.625 931.085938 673.453125 930.519531 C 673.28125 929.949219 673.136719 929.371094 673.019531 928.789062 C 672.90625 928.203125 672.816406 927.617188 672.757812 927.023438 C 672.699219 926.429688 672.671875 925.835938 672.671875 925.242188 L 672.671875 883.792969 L 661.332031 883.792969 C 659.988281 883.792969 658.648438 883.757812 657.308594 883.691406 C 655.964844 883.628906 654.628906 883.527344 653.289062 883.398438 C 651.953125 883.265625 650.621094 883.101562 649.292969 882.90625 C 647.964844 882.707031 646.644531 882.476562 645.328125 882.214844 C 644.007812 881.953125 642.699219 881.660156 641.398438 881.335938 C 640.09375 881.007812 638.800781 880.652344 637.515625 880.261719 C 636.230469 879.871094 634.957031 879.449219 633.691406 879 C 632.425781 878.546875 631.175781 878.0625 629.933594 877.550781 C 628.691406 877.039062 627.464844 876.492188 626.25 875.917969 C 625.039062 875.347656 623.839844 874.742188 622.652344 874.109375 C 621.46875 873.476562 620.300781 872.816406 619.148438 872.125 C 617.996094 871.4375 616.863281 870.71875 615.746094 869.972656 C 614.628906 869.226562 613.53125 868.457031 612.453125 867.65625 C 611.371094 866.855469 610.3125 866.03125 609.273438 865.179688 C 608.238281 864.328125 607.21875 863.453125 606.222656 862.550781 C 605.226562 861.648438 604.253906 860.726562 603.304688 859.777344 C 602.355469 858.828125 601.429688 857.855469 600.527344 856.859375 C 599.621094 855.867188 598.746094 854.851562 597.890625 853.8125 C 597.039062 852.773438 596.210938 851.71875 595.410156 850.640625 C 594.609375 849.5625 593.835938 848.464844 593.089844 847.347656 C 592.34375 846.230469 591.621094 845.097656 590.929688 843.945312 C 590.238281 842.796875 589.578125 841.628906 588.941406 840.445312 C 588.308594 839.261719 587.703125 838.0625 587.125 836.847656 C 586.550781 835.632812 586.003906 834.40625 585.488281 833.167969 C 584.972656 831.925781 584.488281 830.675781 584.035156 829.410156 C 583.582031 828.144531 583.160156 826.871094 582.765625 825.585938 C 582.375 824.300781 582.015625 823.007812 581.6875 821.707031 C 581.359375 820.402344 581.0625 819.09375 580.800781 817.777344 C 580.535156 816.457031 580.304688 815.136719 580.105469 813.808594 C 579.90625 812.480469 579.738281 811.148438 579.605469 809.808594 C 579.472656 808.472656 579.371094 807.132812 579.300781 805.792969 C 579.234375 804.453125 579.199219 803.109375 579.195312 801.765625 L 579.195312 781.40625 C 579.195312 780.808594 579.226562 780.214844 579.285156 779.621094 C 579.34375 779.03125 579.429688 778.441406 579.546875 777.859375 C 579.660156 777.273438 579.804688 776.695312 579.980469 776.128906 C 580.152344 775.558594 580.351562 774.996094 580.578125 774.449219 C 580.808594 773.898438 581.0625 773.359375 581.34375 772.835938 C 581.621094 772.308594 581.929688 771.800781 582.257812 771.304688 C 582.589844 770.808594 582.941406 770.332031 583.320312 769.871094 C 583.699219 769.410156 584.097656 768.96875 584.519531 768.550781 C 584.9375 768.128906 585.378906 767.730469 585.839844 767.351562 C 586.300781 766.972656 586.777344 766.621094 587.273438 766.289062 C 587.765625 765.957031 588.277344 765.652344 588.800781 765.371094 C 589.328125 765.089844 589.863281 764.835938 590.414062 764.609375 C 590.964844 764.378906 591.523438 764.179688 592.09375 764.007812 C 592.664062 763.835938 593.238281 763.691406 593.824219 763.574219 C 594.40625 763.457031 594.996094 763.371094 595.585938 763.3125 C 596.179688 763.253906 596.773438 763.226562 597.367188 763.226562 C 597.964844 763.226562 598.558594 763.253906 599.148438 763.3125 C 599.742188 763.371094 600.328125 763.457031 600.914062 763.574219 C 601.496094 763.691406 602.074219 763.835938 602.644531 764.007812 C 603.210938 764.179688 603.773438 764.378906 604.320312 764.609375 C 604.871094 764.835938 605.410156 765.089844 605.933594 765.371094 C 606.457031 765.652344 606.96875 765.957031 607.464844 766.289062 C 607.957031 766.621094 608.4375 766.972656 608.894531 767.351562 C 609.355469 767.730469 609.796875 768.128906 610.21875 768.550781 C 610.636719 768.96875 611.039062 769.410156 611.414062 769.871094 C 611.792969 770.332031 612.148438 770.808594 612.476562 771.304688 C 612.808594 771.800781 613.113281 772.308594 613.394531 772.835938 C 613.675781 773.359375 613.929688 773.898438 614.15625 774.449219 C 614.382812 774.996094 614.585938 775.558594 614.757812 776.128906 C 614.929688 776.695312 615.074219 777.273438 615.191406 777.859375 C 615.308594 778.441406 615.394531 779.03125 615.453125 779.621094 C 615.511719 780.214844 615.539062 780.808594 615.539062 781.40625 L 615.539062 801.765625 C 615.542969 803.261719 615.621094 804.757812 615.773438 806.246094 C 615.925781 807.734375 616.148438 809.214844 616.445312 810.683594 C 616.742188 812.148438 617.109375 813.601562 617.546875 815.03125 C 617.984375 816.464844 618.492188 817.871094 619.066406 819.253906 C 619.644531 820.632812 620.285156 821.984375 620.992188 823.304688 C 621.703125 824.625 622.472656 825.90625 623.308594 827.148438 C 624.140625 828.390625 625.035156 829.589844 625.984375 830.746094 C 626.9375 831.902344 627.941406 833.007812 629.003906 834.066406 C 630.0625 835.121094 631.171875 836.125 632.332031 837.074219 C 633.488281 838.023438 634.691406 838.910156 635.9375 839.742188 C 637.183594 840.574219 638.464844 841.339844 639.785156 842.042969 C 641.105469 842.75 642.457031 843.386719 643.84375 843.960938 C 645.226562 844.53125 646.632812 845.035156 648.066406 845.46875 C 649.5 845.902344 650.949219 846.265625 652.417969 846.554688 C 653.882812 846.847656 655.363281 847.066406 656.851562 847.210938 C 658.34375 847.359375 659.835938 847.433594 661.332031 847.433594 L 672.671875 847.433594 L 672.671875 700.832031 L 627.023438 683.234375 L 623.824219 681.636719 C 593.734375 663.308594 579.195312 641.347656 579.195312 616.769531 L 579.195312 573.140625 C 579.199219 571.796875 579.234375 570.453125 579.300781 569.113281 C 579.371094 567.769531 579.472656 566.433594 579.605469 565.09375 C 579.738281 563.757812 579.90625 562.425781 580.105469 561.097656 C 580.304688 559.769531 580.535156 558.445312 580.800781 557.128906 C 581.0625 555.8125 581.359375 554.503906 581.6875 553.199219 C 582.015625 551.898438 582.375 550.605469 582.765625 549.320312 C 583.160156 548.035156 583.582031 546.757812 584.035156 545.496094 C 584.488281 544.230469 584.972656 542.980469 585.488281 541.738281 C 586.003906 540.5 586.550781 539.273438 587.125 538.058594 C 587.703125 536.84375 588.308594 535.644531 588.941406 534.460938 C 589.578125 533.277344 590.238281 532.109375 590.929688 530.957031 C 591.621094 529.808594 592.34375 528.671875 593.089844 527.558594 C 593.835938 526.441406 594.609375 525.34375 595.410156 524.265625 C 596.210938 523.1875 597.039062 522.128906 597.890625 521.09375 C 598.746094 520.054688 599.621094 519.039062 600.523438 518.046875 C 601.429688 517.050781 602.355469 516.078125 603.304688 515.128906 C 604.253906 514.179688 605.226562 513.253906 606.222656 512.355469 C 607.21875 511.453125 608.238281 510.578125 609.273438 509.726562 C 610.3125 508.875 611.371094 508.046875 612.453125 507.25 C 613.53125 506.449219 614.628906 505.675781 615.746094 504.933594 C 616.863281 504.1875 617.996094 503.46875 619.148438 502.777344 C 620.300781 502.089844 621.46875 501.425781 622.652344 500.796875 C 623.839844 500.164062 625.039062 499.558594 626.25 498.984375 C 627.464844 498.410156 628.691406 497.867188 629.933594 497.355469 C 631.175781 496.839844 632.425781 496.359375 633.691406 495.90625 C 634.957031 495.453125 636.230469 495.035156 637.515625 494.644531 C 638.800781 494.253906 640.09375 493.898438 641.398438 493.570312 C 642.699219 493.246094 644.007812 492.949219 645.328125 492.6875 C 646.644531 492.425781 647.964844 492.199219 649.292969 492 C 650.621094 491.804688 651.953125 491.640625 653.289062 491.507812 C 654.628906 491.378906 655.964844 491.277344 657.308594 491.210938 C 658.648438 491.148438 659.988281 491.113281 661.332031 491.113281 L 672.671875 491.113281 L 672.671875 453.589844 C 672.671875 452.996094 672.699219 452.402344 672.757812 451.808594 C 672.816406 451.214844 672.90625 450.628906 673.019531 450.042969 C 673.136719 449.460938 673.28125 448.882812 673.453125 448.3125 C 673.625 447.746094 673.828125 447.183594 674.054688 446.632812 C 674.28125 446.085938 674.535156 445.546875 674.816406 445.019531 C 675.097656 444.496094 675.402344 443.984375 675.734375 443.492188 C 676.066406 442.996094 676.417969 442.519531 676.796875 442.058594 C 677.175781 441.597656 677.574219 441.15625 677.996094 440.734375 C 678.414062 440.316406 678.855469 439.914062 679.316406 439.539062 C 679.777344 439.160156 680.253906 438.804688 680.746094 438.476562 C 681.242188 438.144531 681.753906 437.839844 682.277344 437.558594 C 682.800781 437.277344 683.339844 437.023438 683.890625 436.796875 C 684.4375 436.566406 685 436.367188 685.570312 436.195312 C 686.136719 436.023438 686.714844 435.878906 687.296875 435.761719 C 687.882812 435.644531 688.46875 435.558594 689.0625 435.5 C 689.65625 435.441406 690.25 435.410156 690.84375 435.410156 C 691.4375 435.410156 692.03125 435.441406 692.625 435.5 C 693.21875 435.558594 693.804688 435.644531 694.386719 435.761719 C 694.972656 435.878906 695.550781 436.023438 696.117188 436.195312 C 696.6875 436.367188 697.246094 436.566406 697.796875 436.796875 C 698.347656 437.023438 698.882812 437.277344 699.410156 437.558594 C 699.933594 437.839844 700.445312 438.144531 700.9375 438.476562 C 701.433594 438.804688 701.910156 439.160156 702.371094 439.539062 C 702.832031 439.914062 703.273438 440.316406 703.691406 440.734375 C 704.113281 441.15625 704.511719 441.597656 704.890625 442.058594 C 705.269531 442.519531 705.621094 442.996094 705.953125 443.492188 C 706.285156 443.984375 706.589844 444.496094 706.871094 445.019531 C 707.148438 445.546875 707.402344 446.085938 707.632812 446.632812 C 707.859375 447.183594 708.058594 447.746094 708.234375 448.3125 C 708.40625 448.882812 708.550781 449.460938 708.667969 450.042969 C 708.78125 450.628906 708.871094 451.214844 708.929688 451.808594 C 708.984375 452.402344 709.015625 452.996094 709.015625 453.589844 L 709.015625 491.988281 L 712.648438 491.988281 C 713.992188 491.988281 715.332031 492.023438 716.671875 492.09375 C 718.011719 492.160156 719.347656 492.261719 720.679688 492.394531 C 722.015625 492.527344 723.347656 492.695312 724.671875 492.894531 C 726 493.09375 727.320312 493.324219 728.636719 493.585938 C 729.949219 493.851562 731.257812 494.144531 732.558594 494.472656 C 733.859375 494.800781 735.152344 495.160156 736.433594 495.550781 C 737.71875 495.941406 738.988281 496.363281 740.253906 496.816406 C 741.515625 497.269531 742.765625 497.753906 744.003906 498.269531 C 745.242188 498.785156 746.46875 499.328125 747.679688 499.902344 C 748.890625 500.476562 750.089844 501.082031 751.269531 501.714844 C 752.453125 502.347656 753.621094 503.011719 754.769531 503.699219 C 755.917969 504.390625 757.050781 505.109375 758.167969 505.855469 C 759.28125 506.601562 760.378906 507.375 761.453125 508.171875 C 762.53125 508.972656 763.589844 509.796875 764.625 510.648438 C 765.660156 511.5 766.675781 512.378906 767.671875 513.277344 C 768.664062 514.179688 769.636719 515.105469 770.582031 516.054688 C 771.53125 517.003906 772.457031 517.972656 773.355469 518.96875 C 774.257812 519.960938 775.132812 520.976562 775.984375 522.015625 C 776.835938 523.050781 777.660156 524.109375 778.460938 525.1875 C 779.261719 526.265625 780.03125 527.359375 780.777344 528.476562 C 781.523438 529.589844 782.242188 530.722656 782.933594 531.875 C 783.621094 533.023438 784.285156 534.191406 784.917969 535.375 C 785.550781 536.558594 786.152344 537.753906 786.726562 538.96875 C 787.300781 540.179688 787.847656 541.40625 788.359375 542.644531 C 788.875 543.882812 789.359375 545.136719 789.8125 546.398438 C 790.265625 547.660156 790.6875 548.933594 791.078125 550.21875 C 791.46875 551.5 791.828125 552.792969 792.15625 554.09375 C 792.480469 555.394531 792.777344 556.703125 793.042969 558.019531 C 793.304688 559.335938 793.535156 560.65625 793.734375 561.984375 C 793.933594 563.3125 794.097656 564.640625 794.234375 565.976562 C 794.367188 567.3125 794.46875 568.648438 794.535156 569.988281 C 794.601562 571.328125 794.636719 572.671875 794.640625 574.011719 Z M 794.640625 593.644531 " fill-opacity="1" fill-rule="nonzero"/><path fill="#f2c98c" d="M 1234.832031 931.203125 C 1234.238281 931.203125 1233.644531 931.175781 1233.050781 931.117188 C 1232.460938 931.058594 1231.871094 930.96875 1231.289062 930.855469 C 1230.703125 930.738281 1230.128906 930.59375 1229.558594 930.421875 C 1228.988281 930.25 1228.429688 930.046875 1227.878906 929.820312 C 1227.328125 929.59375 1226.792969 929.335938 1226.265625 929.058594 C 1225.742188 928.777344 1225.230469 928.472656 1224.738281 928.140625 C 1224.242188 927.808594 1223.765625 927.453125 1223.304688 927.078125 C 1222.84375 926.699219 1222.40625 926.300781 1221.984375 925.878906 C 1221.5625 925.457031 1221.164062 925.019531 1220.785156 924.558594 C 1220.410156 924.097656 1220.054688 923.621094 1219.722656 923.125 C 1219.394531 922.628906 1219.085938 922.121094 1218.808594 921.59375 C 1218.527344 921.070312 1218.273438 920.53125 1218.042969 919.980469 C 1217.816406 919.429688 1217.617188 918.871094 1217.445312 918.300781 C 1217.269531 917.730469 1217.125 917.15625 1217.011719 916.570312 C 1216.894531 915.988281 1216.808594 915.398438 1216.75 914.804688 C 1216.691406 914.214844 1216.660156 913.621094 1216.660156 913.023438 L 1216.660156 624.332031 C 1216.660156 623.738281 1216.691406 623.144531 1216.75 622.550781 C 1216.808594 621.957031 1216.894531 621.371094 1217.011719 620.785156 C 1217.125 620.203125 1217.269531 619.625 1217.445312 619.054688 C 1217.617188 618.488281 1217.816406 617.925781 1218.042969 617.375 C 1218.273438 616.828125 1218.527344 616.289062 1218.808594 615.761719 C 1219.085938 615.238281 1219.394531 614.726562 1219.722656 614.234375 C 1220.054688 613.738281 1220.410156 613.261719 1220.785156 612.800781 C 1221.164062 612.339844 1221.5625 611.898438 1221.984375 611.476562 C 1222.40625 611.058594 1222.84375 610.65625 1223.304688 610.28125 C 1223.765625 609.902344 1224.242188 609.546875 1224.738281 609.21875 C 1225.230469 608.886719 1225.742188 608.582031 1226.265625 608.300781 C 1226.792969 608.019531 1227.328125 607.765625 1227.878906 607.539062 C 1228.429688 607.308594 1228.988281 607.109375 1229.558594 606.9375 C 1230.128906 606.765625 1230.703125 606.621094 1231.289062 606.503906 C 1231.871094 606.386719 1232.460938 606.300781 1233.050781 606.242188 C 1233.644531 606.183594 1234.238281 606.152344 1234.832031 606.152344 C 1235.429688 606.152344 1236.023438 606.183594 1236.613281 606.242188 C 1237.207031 606.300781 1237.792969 606.386719 1238.378906 606.503906 C 1238.960938 606.621094 1239.539062 606.765625 1240.109375 606.9375 C 1240.675781 607.109375 1241.238281 607.308594 1241.789062 607.539062 C 1242.335938 607.765625 1242.875 608.019531 1243.398438 608.300781 C 1243.925781 608.582031 1244.433594 608.886719 1244.929688 609.21875 C 1245.421875 609.546875 1245.902344 609.902344 1246.359375 610.28125 C 1246.820312 610.660156 1247.261719 611.058594 1247.683594 611.480469 C 1248.101562 611.898438 1248.503906 612.339844 1248.878906 612.800781 C 1249.257812 613.261719 1249.613281 613.738281 1249.941406 614.234375 C 1250.273438 614.726562 1250.578125 615.238281 1250.859375 615.761719 C 1251.140625 616.289062 1251.394531 616.828125 1251.621094 617.375 C 1251.847656 617.925781 1252.050781 618.488281 1252.222656 619.054688 C 1252.394531 619.625 1252.539062 620.203125 1252.65625 620.785156 C 1252.773438 621.371094 1252.859375 621.957031 1252.917969 622.550781 C 1252.976562 623.144531 1253.003906 623.738281 1253.003906 624.332031 L 1253.003906 913.023438 C 1253.003906 913.621094 1252.976562 914.214844 1252.917969 914.804688 C 1252.859375 915.398438 1252.773438 915.988281 1252.65625 916.570312 C 1252.539062 917.15625 1252.394531 917.730469 1252.222656 918.300781 C 1252.050781 918.871094 1251.847656 919.429688 1251.621094 919.980469 C 1251.394531 920.53125 1251.140625 921.070312 1250.859375 921.59375 C 1250.578125 922.121094 1250.273438 922.628906 1249.941406 923.125 C 1249.613281 923.621094 1249.257812 924.097656 1248.878906 924.558594 C 1248.503906 925.019531 1248.101562 925.457031 1247.683594 925.878906 C 1247.261719 926.300781 1246.820312 926.699219 1246.359375 927.078125 C 1245.902344 927.453125 1245.421875 927.808594 1244.929688 928.140625 C 1244.433594 928.472656 1243.925781 928.777344 1243.398438 929.058594 C 1242.875 929.335938 1242.335938 929.59375 1241.789062 929.820312 C 1241.238281 930.046875 1240.675781 930.25 1240.109375 930.421875 C 1239.539062 930.59375 1238.960938 930.738281 1238.378906 930.855469 C 1237.792969 930.96875 1237.207031 931.058594 1236.613281 931.117188 C 1236.023438 931.175781 1235.429688 931.203125 1234.832031 931.203125 Z M 1234.832031 931.203125 " fill-opacity="1" fill-rule="nonzero"/><path fill="#f2c98c" d="M 462.898438 404.144531 C 462.300781 404.144531 461.707031 404.113281 461.117188 404.054688 C 460.523438 403.996094 459.933594 403.910156 459.351562 403.792969 C 458.769531 403.675781 458.191406 403.53125 457.621094 403.359375 C 457.050781 403.1875 456.492188 402.988281 455.941406 402.757812 C 455.394531 402.53125 454.855469 402.277344 454.332031 401.996094 C 453.804688 401.714844 453.296875 401.410156 452.800781 401.078125 C 452.304688 400.75 451.828125 400.394531 451.367188 400.015625 C 450.910156 399.636719 450.46875 399.238281 450.046875 398.816406 C 449.625 398.398438 449.226562 397.957031 448.851562 397.496094 C 448.472656 397.035156 448.117188 396.558594 447.789062 396.0625 C 447.457031 395.566406 447.152344 395.058594 446.871094 394.53125 C 446.589844 394.007812 446.335938 393.46875 446.109375 392.921875 C 445.878906 392.371094 445.679688 391.808594 445.507812 391.242188 C 445.335938 390.671875 445.191406 390.09375 445.074219 389.511719 C 444.957031 388.925781 444.871094 388.335938 444.8125 387.746094 C 444.753906 387.152344 444.726562 386.558594 444.726562 385.964844 L 444.726562 245.035156 C 444.726562 244.441406 444.753906 243.847656 444.8125 243.253906 C 444.871094 242.660156 444.957031 242.074219 445.074219 241.488281 C 445.191406 240.90625 445.335938 240.328125 445.507812 239.757812 C 445.679688 239.1875 445.878906 238.628906 446.109375 238.078125 C 446.335938 237.527344 446.589844 236.992188 446.871094 236.464844 C 447.152344 235.941406 447.457031 235.429688 447.789062 234.9375 C 448.117188 234.441406 448.472656 233.960938 448.851562 233.503906 C 449.226562 233.042969 449.625 232.601562 450.046875 232.179688 C 450.46875 231.757812 450.910156 231.359375 451.367188 230.984375 C 451.828125 230.605469 452.304688 230.25 452.800781 229.917969 C 453.296875 229.589844 453.804688 229.285156 454.332031 229.003906 C 454.855469 228.722656 455.394531 228.46875 455.941406 228.238281 C 456.492188 228.011719 457.050781 227.8125 457.621094 227.640625 C 458.191406 227.464844 458.769531 227.320312 459.351562 227.207031 C 459.933594 227.089844 460.523438 227.003906 461.117188 226.945312 C 461.707031 226.886719 462.300781 226.855469 462.898438 226.855469 C 463.492188 226.855469 464.085938 226.886719 464.679688 226.945312 C 465.269531 227.003906 465.859375 227.089844 466.441406 227.207031 C 467.027344 227.320312 467.601562 227.464844 468.171875 227.640625 C 468.742188 227.8125 469.300781 228.011719 469.851562 228.238281 C 470.402344 228.46875 470.9375 228.722656 471.464844 229.003906 C 471.988281 229.285156 472.496094 229.589844 472.992188 229.917969 C 473.488281 230.25 473.964844 230.605469 474.425781 230.984375 C 474.886719 231.359375 475.324219 231.757812 475.746094 232.179688 C 476.167969 232.601562 476.566406 233.042969 476.945312 233.503906 C 477.320312 233.960938 477.675781 234.441406 478.007812 234.9375 C 478.335938 235.429688 478.640625 235.941406 478.921875 236.464844 C 479.203125 236.992188 479.457031 237.527344 479.683594 238.078125 C 479.914062 238.628906 480.113281 239.1875 480.285156 239.757812 C 480.460938 240.328125 480.601562 240.90625 480.71875 241.488281 C 480.835938 242.074219 480.921875 242.660156 480.980469 243.253906 C 481.039062 243.847656 481.070312 244.441406 481.070312 245.035156 L 481.070312 385.964844 C 481.070312 386.558594 481.039062 387.152344 480.980469 387.746094 C 480.921875 388.335938 480.835938 388.925781 480.71875 389.511719 C 480.601562 390.09375 480.460938 390.671875 480.285156 391.242188 C 480.113281 391.808594 479.914062 392.371094 479.683594 392.921875 C 479.457031 393.46875 479.203125 394.007812 478.921875 394.53125 C 478.640625 395.058594 478.335938 395.566406 478.007812 396.0625 C 477.675781 396.558594 477.320312 397.035156 476.945312 397.496094 C 476.566406 397.957031 476.167969 398.398438 475.746094 398.816406 C 475.324219 399.238281 474.886719 399.636719 474.425781 400.015625 C 473.964844 400.394531 473.488281 400.75 472.992188 401.078125 C 472.496094 401.410156 471.988281 401.714844 471.464844 401.996094 C 470.9375 402.277344 470.402344 402.53125 469.851562 402.757812 C 469.300781 402.988281 468.742188 403.1875 468.171875 403.359375 C 467.601562 403.53125 467.027344 403.675781 466.441406 403.792969 C 465.859375 403.910156 465.269531 403.996094 464.679688 404.054688 C 464.085938 404.113281 463.492188 404.144531 462.898438 404.144531 Z M 462.898438 404.144531 " fill-opacity="1" fill-rule="nonzero"/></svg>